<svg version="1.0" xmlns="http://www.w3.org/2000/svg"
 width="72.000000pt" height="72.000000pt" viewBox="0 0 72.000000 72.000000"
 preserveAspectRatio="xMidYMid meet">
<g transform="translate(0.000000,72.000000) scale(0.100000,-0.100000)"
fill="#000000" stroke="none">
<path d="M0 360 l0 -360 360 0 360 0 0 360 0 360 -360 0 -360 0 0 -360z m335
280 c91 -85 68 -184 -64 -275 -83 -57 -111 -98 -111 -160 0 -59 29 -106 80
-132 l44 -23 -42 0 c-112 0 -192 79 -192 189 0 65 12 94 65 162 62 79 71 106
47 138 -20 28 -67 40 -85 22 -6 -6 -15 -11 -19 -11 -29 0 29 72 81 100 54 30
160 24 196 -10z m216 -102 c7 -20 23 -39 43 -48 42 -21 76 -74 76 -121 l0 -39
-44 0 c-28 0 -67 11 -108 30 -36 17 -85 34 -109 39 l-44 8 40 18 c60 26 95 54
95 75 0 24 21 70 31 70 4 0 13 -15 20 -32z m-40 -195 c30 -17 72 -35 94 -38
22 -4 46 -12 53 -18 18 -14 15 -40 -3 -33 -9 3 -35 -1 -58 -9 -66 -23 -81 -19
-122 31 -42 51 -102 83 -153 84 -22 0 -31 4 -26 11 4 8 33 10 84 7 62 -4 87
-10 131 -35z m-110 -26 c55 -37 79 -81 79 -148 0 -51 3 -58 23 -65 25 -7 57
-33 57 -46 0 -4 -55 -8 -122 -8 l-123 0 31 19 c45 27 64 59 64 107 0 53 -36
99 -88 114 -32 8 -44 6 -84 -14 -27 -12 -48 -20 -48 -16 0 14 43 62 64 70 42
17 111 11 147 -13z m-61 -62 c40 -21 56 -72 36 -118 -17 -42 -41 -57 -91 -57
-72 0 -109 75 -73 146 20 42 78 55 128 29z"/>
<path d="M266 194 c-20 -19 -5 -54 24 -54 29 0 44 35 24 54 -19 20 -29 20 -48
0z"/>
</g>
</svg>
